<svg width="24" height="24" viewBox="0 0 24 24" fill="none" xmlns="http://www.w3.org/2000/svg">
<path d="M12 24C18.6274 24 24 18.6274 24 12C24 5.37258 18.6274 0 12 0C5.37258 0 0 5.37258 0 12C0 18.6274 5.37258 24 12 24Z" fill="#FFCA28"/>
<path d="M20.532 13.797C20.391 13.6095 20.169 13.5 19.935 13.5H4.06505C3.82955 13.5 3.60905 13.6095 3.46805 13.797C3.32555 13.9845 3.27905 14.226 3.34355 14.454C4.42805 18.3075 7.98755 21 12 21C16.0125 21 19.572 18.3075 20.6565 14.454C20.7195 14.226 20.6745 13.9845 20.532 13.797Z" fill="#FAFAFA"/>
<path d="M7.5 10.5C8.32843 10.5 9 9.82843 9 9C9 8.17157 8.32843 7.5 7.5 7.5C6.67157 7.5 6 8.17157 6 9C6 9.82843 6.67157 10.5 7.5 10.5Z" fill="#6D4C41"/>
<path d="M16.5 10.5C17.3284 10.5 18 9.82843 18 9C18 8.17157 17.3284 7.5 16.5 7.5C15.6716 7.5 15 8.17157 15 9C15 9.82843 15.6716 10.5 16.5 10.5Z" fill="#6D4C41"/>
</svg>
