<svg width="36" height="36" viewBox="0 0 36 36" fill="none" xmlns="http://www.w3.org/2000/svg">
<path d="M22.7 10C20.4 7.80005 17.4 6.50005 14.3 6.50005C11.1 6.50005 8.1 7.70005 5.9 10C4.5 11.4 3.7 13.2 3.7 15.2C3.7 17.2 4.5 19 5.9 20.4C6.2 20.7 6.6 21 7 21.3L7.5 21.7001L6.9 25.3L12 23.6H12.2C12.9 23.7 13.7 23.8 14.4 23.8C17.6 23.8 20.6 22.6 22.8 20.3C24.2 18.9 25 17.1 25 15.1C25 13.1 24.1 11.4 22.7 10ZM9.7 16.6C8.9 16.6 8.2 15.9 8.2 15.1C8.2 14.3 8.9 13.6 9.7 13.6C10.5 13.6 11.2 14.3 11.2 15.1C11.2 15.9 10.6 16.6 9.7 16.6ZM14.3 16.6C13.5 16.6 12.8 15.9 12.8 15.1C12.8 14.3 13.5 13.6 14.3 13.6C15.1 13.6 15.8 14.3 15.8 15.1C15.8 15.9 15.2 16.6 14.3 16.6ZM18.9 16.6C18.1 16.6 17.4 15.9 17.4 15.1C17.4 14.3 18.1 13.6 18.9 13.6C19.7 13.6 20.4 14.3 20.4 15.1C20.4 15.9 19.8 16.6 18.9 16.6ZM29.7 24.6L29.2 25L29.7 27.7001L26 26.4H25.8C25.2 26.5 24.6 26.6 24.1 26.6C22.2 26.6 20.4 26 18.9 25C20.9 24.3 22.7 23.2001 24.2 21.7001C26 20.0001 26.9 17.6 26.9 15.2C26.9 14.6 26.8 14.1 26.8 13.5C28.3 13.9 29.6 14.7 30.7 15.8C31.8 16.9 32.4 18.3 32.4 19.8C32.4 21.3 31.8 22.7 30.7 23.8C30.3 24.1 30 24.4 29.7 24.6ZM36 19.9C36 17.4 35 15 33.2 13.2C31.6 11.6 29.5 10.4 27.2 9.80005C26.7 8.90005 26.1 8.10005 25.3 7.30005C22.3 4.40005 18.4 2.80005 14.2 2.80005C10 2.80005 6.1 4.40005 3.1 7.30005C1.2 9.40005 0 12.2 0 15.2C0 18.2 1.2 20.9 3.3 23L3.4 23.1L2 30.8L12.1 27.4C13.3 27.6 14.6 27.6 15.8 27.5C18.1 29.3 21 30.3 23.9 30.3C24.5 30.3 25 30.3001 25.6 30.2001L34.5 33.2001L33.3 26.4C35.1 24.6 36 22.3 36 19.9ZM25.8 28.3C25.2 28.4 24.6 28.5 24 28.5C21.2 28.5 18.5 27.5 16.4 25.6C15.7 25.7 15 25.8 14.3 25.8C13.5 25.8 12.7 25.7 12 25.6L4.3 28.2001L5.3 22.5C5 22.3 4.8 22 4.5 21.8C2.7 20.1 1.8 17.7 1.8 15.3C1.8 14.1 2 12.9 2.5 11.8C3 10.7 3.6 9.70005 4.5 8.80005C7.1 6.20005 10.6 4.80005 14.3 4.80005C16.1 4.80005 17.9 5.20005 19.6 5.80005C21.3 6.50005 22.8 7.50005 24.1 8.80005C24.9 9.60005 25.6 10.5 26 11.6C28.2 12 30.3 13.1 31.9 14.7C33.3 16.1 34.1 18.0001 34.1 20.1C34.1 22.1 33.3 24 31.9 25.5C31.7 25.7 31.5 25.9 31.3 26L32.1 30.7001L25.8 28.3Z" fill="#117BBC"/>
</svg>
